<svg width="36" height="41" viewBox="0 0 36 41" fill="none" xmlns="http://www.w3.org/2000/svg">
<rect width="36" height="41" fill="white"/>
<g clip-path="url(#clip0_171_13)">
<path d="M0.71006 27.5105H6.0355C7.52663 33.0277 12.426 36.9266 17.9645 36.9266C23.787 36.9266 28.8994 32.6599 30.1065 26.7748C30.1775 26.5541 30.1065 26.3335 29.9645 26.1128C29.8225 25.9656 29.6095 25.8185 29.3965 25.8185H25.7041C25.4201 25.8185 25.1361 26.0392 24.9941 26.3335C24 29.4967 21.1598 31.63 17.9645 31.63C15.1243 31.63 12.568 29.9381 11.3609 27.3633H16.6864C16.9704 27.3633 17.2544 27.1427 17.3965 26.922C17.5385 26.6277 17.4675 26.3335 17.2544 26.1128L9.23077 17.9473C8.94675 17.653 8.44971 17.653 8.16568 17.9473L0.213019 26.2599C7.60425e-07 26.4806 -0.0710052 26.7748 0.0710067 27.0691C0.142013 27.3633 0.426036 27.5105 0.71006 27.5105ZM14.9822 26.0392H10.3669C10.1538 26.0392 9.94083 26.1863 9.79882 26.3335C9.65681 26.5541 9.65681 26.7748 9.72781 26.9955C10.9349 30.7473 14.2722 33.2484 18.1065 33.2484C21.7988 33.2484 25.0651 30.8944 26.3432 27.3633H28.5444C27.1953 32.0714 22.8639 35.3817 18.1065 35.3817C12.9941 35.3817 8.52071 31.63 7.45562 26.5541C7.38462 26.1863 7.10059 25.9656 6.74556 25.9656H2.48521L8.73373 19.4921L14.9822 26.0392Z" fill="#192F39"/>
<path d="M6.60355 16.0345H10.2959C10.5799 16.0345 10.8639 15.8138 11.0059 15.5195C12 12.3563 14.8402 10.223 18.0355 10.223C20.8757 10.223 23.432 11.9149 24.6391 14.4897H19.3136C19.0296 14.4897 18.7456 14.7103 18.6036 14.931C18.4615 15.2253 18.5325 15.5195 18.7456 15.7402L26.7692 24.0529C26.9112 24.2 27.1243 24.2736 27.2663 24.2736C27.4793 24.2736 27.6213 24.2 27.7633 24.0529L35.787 15.7402C36 15.5195 36.071 15.2253 35.929 14.931C35.787 14.6368 35.574 14.4897 35.2189 14.4897H29.8935C28.4734 8.97241 23.574 5 17.9645 5C12.213 5 7.10059 9.26667 5.89349 15.1517C5.82249 15.3724 5.89349 15.5931 6.0355 15.8138C6.17752 15.9609 6.39053 16.0345 6.60355 16.0345ZM17.9645 6.54483C23.0769 6.54483 27.5503 10.2966 28.6154 15.3724C28.6864 15.7402 28.9704 15.9609 29.3254 15.9609H33.4438L27.1953 22.4345L20.9467 15.9609H25.5621C25.7751 15.9609 25.9882 15.8138 26.1302 15.6667C26.2722 15.446 26.2722 15.2253 26.2012 15.0046C25.2071 11.1793 21.7988 8.67816 17.9645 8.67816C14.2722 8.67816 11.0059 11.0322 9.72781 14.5632H7.52663C8.94675 9.85517 13.2071 6.54483 17.9645 6.54483Z" fill="#192F39"/>
</g>
<defs>
<clipPath id="clip0_171_13">
<rect width="36" height="32" fill="white" transform="translate(0 5)"/>
</clipPath>
</defs>
</svg>
