<svg width="36" height="41" viewBox="0 0 36 41" fill="none" xmlns="http://www.w3.org/2000/svg">
<rect width="36" height="41" fill="white"/>
<path d="M24.8354 14.25C24.3038 13.3181 23.5443 12.6014 22.481 12.0996C21.4177 11.5978 20.2025 11.3828 18.6835 11.3828H15.4177H14.5823H13.8987C13.2911 11.3828 12.8354 11.8129 12.8354 12.3863V27.7973C12.8354 28.3708 13.2911 28.8008 13.8987 28.8008H14.5823H15.4177H18.6835C20.2025 28.8008 21.4177 28.5858 22.481 28.084C23.5443 27.5823 24.3038 26.8655 24.9114 25.9337C25.443 25.0018 25.7468 23.855 25.7468 22.5647V17.6189C25.6709 16.257 25.443 15.1818 24.8354 14.25ZM23.0127 22.6364C23.0127 23.855 22.6329 24.7868 21.8734 25.4319C21.1139 26.077 20.0506 26.4354 18.6835 26.4354H16.4051C15.7975 26.4354 15.3418 26.0053 15.3418 25.4319V14.68C15.3418 14.1066 15.7975 13.6765 16.4051 13.6765H18.6835C20.0506 13.6765 21.1139 14.0349 21.8734 14.68C22.6329 15.3252 23.0127 16.257 23.0127 17.4755V22.6364Z" fill="#192F39"/>
<path d="M6.60759 32.3849C8.12658 33.6035 10.0253 34.5353 12.3038 35.1804C14.5063 35.8255 16.9367 36.1839 19.2911 36.1839C23.6962 36.1839 27.7215 35.037 30.6835 32.9584C32.3544 31.7398 33.6456 30.2345 34.557 28.5142C35.5443 26.6506 36 24.4285 36 22.0631C36 21.418 36 20.7729 35.924 20.0561C35.6962 17.5473 35.0127 15.3253 33.9494 13.39C32.5063 10.7378 30.2278 8.73082 27.3418 7.36892C26.4304 6.93884 25.443 6.58045 24.4557 6.36541C26.8861 6.22205 29.4684 6.29373 32.2025 6.58045C32.5063 6.58045 32.8101 6.50877 33.038 6.36541C33.2658 6.15037 33.4177 5.93534 33.4937 5.57694C33.4937 5.29022 33.4177 5.00351 33.2658 4.71679C33.038 4.50175 32.8101 4.3584 32.4304 4.28672C30.5316 4.07168 28.6329 4 26.8101 4C22.557 4 18.7595 4.57343 15.5696 5.64862C15.4177 5.7203 15.2658 5.79198 15.1139 5.79198H15.038C12.6076 6.15037 10.1772 6.72381 7.97468 7.58395C4.63291 8.87418 1.89873 10.6662 0.227848 12.6732C0.0759494 12.9599 0 13.2466 0 13.5333C0.0759494 13.82 0.227848 14.1068 0.455696 14.2501C0.987342 14.6085 1.74684 14.5368 2.12658 14.0351C3.34177 12.6015 5.31646 11.1679 7.74684 10.0927C6.83544 10.9529 6.07595 11.813 5.46835 12.7448C3.49367 15.5403 2.50633 18.8376 2.50633 22.2782C2.50633 24.8586 3.11392 27.3674 4.17722 29.4461C4.70886 30.5213 5.5443 31.5248 6.60759 32.3849ZM3.11392 22.3498C3.11392 19.0526 4.10127 15.827 6 13.1749C6.98734 11.813 8.20253 10.5228 9.64557 9.44761L11.2405 8.22907L9.11392 8.94586C8.96202 9.01754 8.81013 9.01754 8.65823 9.08921C5.62025 10.3078 3.11392 11.8847 1.67089 13.6767C1.51899 13.8917 1.13924 13.9634 0.911392 13.7484C0.835443 13.6767 0.759494 13.5333 0.683544 13.39C0.683544 13.2466 0.683544 13.1032 0.759494 13.0316C2.35443 11.0962 4.93671 9.37593 8.20253 8.08571C10.3291 7.22556 12.7595 6.65213 15.1139 6.36541L15.2658 6.29373C15.4177 6.22205 15.5696 6.15037 15.7215 6.15037C18.9114 5.07519 22.6329 4.57343 26.8101 4.57343C28.557 4.57343 30.4557 4.64511 32.3544 4.86015C32.5063 4.86015 32.6582 4.93183 32.7342 5.07519C32.8101 5.14687 32.8861 5.29022 32.8861 5.43358C32.8861 5.57694 32.8101 5.7203 32.6582 5.79198C32.5823 5.86366 32.4304 5.93534 32.2785 5.93534C28.7089 5.57694 25.2911 5.57694 22.3291 5.86366L20.0506 6.15037L22.3291 6.50877C24.0759 6.79548 25.7468 7.29724 27.1899 7.94235C29.924 9.23257 32.0506 11.1679 33.4937 13.6767C34.557 15.5403 35.1646 17.6907 35.3924 20.1278C35.4684 20.7729 35.4684 21.418 35.4684 22.0631C35.4684 24.3569 35.0127 26.4356 34.1013 28.2992C33.2658 29.9478 31.9747 31.3814 30.3797 32.5283C27.5696 34.5353 23.6962 35.6105 19.443 35.6105C17.0886 35.6105 14.7342 35.2521 12.6076 34.6786C10.4051 34.0335 8.50633 33.1017 7.13924 31.9548C6.1519 31.1664 5.31646 30.2345 4.86076 29.3027C3.64557 27.224 3.11392 24.8586 3.11392 22.3498Z" fill="#192F39"/>
<path d="M7.67089 31.0946C8.58228 31.8114 9.64557 32.3848 10.8608 32.8866C13.2911 33.8901 16.3291 34.4635 19.2911 34.4635C22.2532 34.4635 25.0633 33.8901 27.3418 32.8866C29.9241 31.7397 31.8228 29.9478 32.962 27.7257C33.7975 26.0771 34.2532 24.1418 34.2532 21.9914C34.2532 21.4179 34.2532 20.7728 34.1772 20.1994C33.9494 17.9057 33.3418 15.827 32.3544 14.1067C31.443 12.5297 30.3038 11.1678 28.7848 10.0927C26.1266 8.15732 22.557 7.15381 18.5316 7.15381C17.5443 7.15381 16.481 7.22549 15.4177 7.36885H15.3418C14.2025 7.79892 13.1392 8.30067 12.1519 8.87411C8.96203 10.7378 6.68354 13.3182 5.31646 16.4721C4.55696 18.3357 4.17722 20.2711 4.17722 22.3498C4.17722 24.6435 4.70886 26.9372 5.6962 28.8009C6.1519 29.661 6.83544 30.3778 7.67089 31.0946ZM4.86076 22.3498C4.86076 20.4144 5.24051 18.4791 6 16.7588C7.29114 13.7483 9.49367 11.2395 12.6076 9.51922C13.519 9.01746 14.5823 8.51571 15.6456 8.08564C16.7089 7.94228 17.6962 7.8706 18.6076 7.8706C22.557 7.8706 25.9747 8.80243 28.481 10.6661C29.8481 11.6696 30.9873 12.9598 31.8228 14.4651C32.7342 16.1137 33.3418 18.1207 33.5696 20.3428C33.6456 20.9162 33.6456 21.5613 33.6456 22.1347C33.6456 24.2134 33.2658 26.0771 32.4304 27.654C31.3671 29.8044 29.5443 31.3813 27.1139 32.5282C24.9114 33.5317 22.1772 34.1051 19.3671 34.1051C16.481 34.1051 13.5949 33.5317 11.2405 32.5999C10.0253 32.0981 9.03798 31.5247 8.20253 30.8796C7.36709 30.2345 6.75949 29.5177 6.37975 28.7292C5.31646 26.7222 4.86076 24.5718 4.86076 22.3498Z" fill="#192F39"/>
</svg>
