<svg width="36" height="41" viewBox="0 0 36 41" fill="none" xmlns="http://www.w3.org/2000/svg">
<rect width="36" height="41" fill="white"/>
<g clip-path="url(#clip0_171_18)">
<path d="M7.74007 33.6099C9.76173 35.1284 11.9856 36.1407 14.4116 36.6469V38.6716C14.4116 39.9877 15.4224 41 16.7365 41H19.5668C20.8809 41 21.8917 39.9877 21.8917 38.6716V36.6469C24.0144 36.242 25.935 35.5333 27.5523 34.4198C30.4838 32.4963 31.8989 29.8642 32 26.5235C32 24.3975 31.3935 22.5753 30.1805 21.0568C28.361 18.8296 25.5307 17.4123 21.8917 16.8049V13.363C22.0939 13.5654 22.3971 13.7679 22.5993 13.9704C23.1047 14.3753 23.7112 14.5778 24.4188 14.679C25.0253 14.679 25.6318 14.3753 25.7329 14.2741H25.8339L29.0686 12.2494C29.8773 11.7432 30.0794 11.0346 30.0794 10.5284C30.0794 10.0222 29.8773 9.51605 29.4729 9.11111C27.4513 6.88395 24.9242 5.46667 21.9928 4.75802V2.32839C21.9928 1.01235 20.9819 0 19.6679 0H16.8375C15.5235 0 14.5126 1.01235 14.5126 2.32839V4.65679C13.0975 4.85926 11.8845 5.2642 10.7726 5.77037C6.62816 7.69383 4.6065 10.5284 4.6065 14.3753C4.6065 16.1975 5.213 17.9185 6.32491 19.3358C8.04332 21.563 10.6715 23.0815 14.3105 23.7901V28.7506C13.1986 28.1432 12.0866 27.3333 11.0758 26.2198C10.5704 25.6123 9.9639 25.3086 9.25632 25.3086C8.85198 25.3086 8.34657 25.5111 8.1444 25.6123L5.11191 27.3333C4.20217 27.8395 4 28.6494 4 29.1556C4 29.6617 4.20217 30.0667 4.50542 30.4716C5.31408 31.484 6.42599 32.5975 7.74007 33.6099ZM5.81949 28.6494L8.7509 26.9284C8.95307 26.8272 9.15523 26.7259 9.25632 26.7259C9.55957 26.7259 9.76173 26.8272 9.9639 27.0296C9.9639 27.0296 9.9639 27.0296 9.9639 27.1309C11.4801 28.7506 13.0975 29.9654 14.917 30.5728C15.1191 30.6741 15.4224 30.5728 15.6245 30.4716C15.8267 30.3704 15.9278 30.0667 15.9278 29.8642V23.0815C15.9278 22.6765 15.6245 22.3728 15.3213 22.3728C11.7834 21.8667 9.15523 20.4494 7.63899 18.4247C6.72924 17.2099 6.32491 15.8938 6.22383 14.2741C6.12274 11.0346 7.84116 8.70617 11.4801 7.08642C12.5921 6.58025 13.8051 6.17531 15.2202 6.07407C15.6245 5.97284 15.8267 5.66914 15.8267 5.36543V2.32839C15.8267 1.92346 16.231 1.51852 16.6354 1.51852H19.4657C19.87 1.51852 20.2744 1.92346 20.2744 2.32839V5.36543C20.2744 5.77037 20.5776 6.07407 20.8809 6.07407C23.8123 6.58025 26.3393 7.8963 28.1588 10.1235C28.1588 10.1235 28.1588 10.1235 28.2599 10.2247C28.4621 10.3259 28.4621 10.5284 28.4621 10.5284C28.4621 10.6296 28.4621 10.7309 28.1588 10.9333L25.0253 12.958C24.8231 13.0593 24.5199 13.1605 24.4188 13.1605C24.1155 13.1605 23.8123 13.0593 23.6101 12.8568C22.9025 12.2494 22.1949 11.8444 21.4874 11.4395C21.2852 11.3383 20.9819 11.3383 20.7798 11.4395C20.5776 11.5407 20.4765 11.8444 20.4765 12.0469V17.4123C20.4765 17.8173 20.7798 18.121 21.083 18.121C24.722 18.6272 27.4513 19.9432 29.0686 21.8667C30.0794 23.0815 30.5848 24.4988 30.4838 26.321C30.3827 29.1556 29.1697 31.3827 26.7437 33.0025C25.1264 34.0148 23.2058 34.7235 21.083 35.0272C20.6787 35.1284 20.4765 35.4321 20.4765 35.7358V38.3679C20.4765 38.7728 20.0722 39.1778 19.6679 39.1778H16.8375C16.4332 39.1778 16.0289 38.7728 16.0289 38.3679V35.7358C16.0289 35.3309 15.7256 35.0272 15.4224 35.0272C12.9964 34.6222 10.6715 33.7111 8.7509 32.1926C7.53791 31.2815 6.52708 30.2691 5.81949 29.2568C5.81949 29.2568 5.81949 29.2568 5.71841 29.1556C5.61733 29.0543 5.61733 28.8519 5.61733 28.8519C5.51625 29.0543 5.51625 28.8519 5.81949 28.6494Z" fill="#192F39"/>
<path d="M15.9278 11.9459C15.9278 11.7434 15.8267 11.4397 15.6245 11.3385C15.4224 11.2372 15.1191 11.136 14.917 11.2372L14.7148 11.3385C14.7148 11.3385 14.7148 11.3385 14.6137 11.3385C12.8953 12.1484 12.491 13.3632 12.491 14.2743C12.491 15.2866 12.8953 16.7039 14.8159 17.4126C14.917 17.4126 15.0181 17.4126 15.1191 17.4126C15.2202 17.4126 15.4224 17.4126 15.5235 17.3113C15.7256 17.2101 15.8267 16.9064 15.8267 16.7039V11.9459H15.9278ZM14.4116 15.3879C14.1083 14.9829 14.0072 14.578 14.0072 14.2743C14.0072 13.9706 14.1083 13.6669 14.4116 13.2619V15.3879Z" fill="#192F39"/>
<path d="M20.7798 30.3705C20.8809 30.4718 21.083 30.4718 21.1841 30.4718C21.2852 30.4718 21.3863 30.4718 21.4874 30.3705C21.6895 30.2693 21.9928 30.1681 22.1949 29.9656C23.509 29.1557 24.2166 27.9409 24.2166 26.4224C24.2166 25.3088 23.7112 23.6891 21.3863 22.9804C21.1841 22.8792 20.8809 22.9804 20.6787 23.0816C20.4765 23.1829 20.3755 23.4866 20.3755 23.6891V29.5607C20.3755 29.9656 20.4765 30.2693 20.7798 30.3705ZM21.8917 25.0051C22.5993 25.5113 22.7004 26.0174 22.7004 26.5236C22.7004 27.3335 22.3971 27.9409 21.8917 28.3458V25.0051Z" fill="#192F39"/>
</g>
<defs>
<clipPath id="clip0_171_18">
<rect width="27.7" height="41" fill="white" transform="translate(4)"/>
</clipPath>
</defs>
</svg>
